solid Default
  facet normal 0.000000e+00 6.123234e-17 -1.000000e+00
    outer loop
      vertex -4.999987e-03 3.972000e+00 1.999855e-03
      vertex -1.215000e+00 3.972000e+00 1.999855e-03
      vertex -1.123000e+00 4.544000e+00 1.999855e-03
    endloop
  endfacet
  facet normal 0.000000e+00 -6.123234e-17 1.000000e+00
    outer loop
      vertex -1.215000e+00 3.972000e+00 9.000000e+00
      vertex -4.999987e-03 3.972000e+00 9.000000e+00
      vertex -1.123000e+00 4.544000e+00 9.000000e+00
    endloop
  endfacet
  facet normal -0.000000e+00 -6.123234e-17 1.000000e+00
    outer loop
      vertex -4.999987e-03 3.972000e+00 9.000000e+00
      vertex 1.641000e+00 -5.470000e+00 9.000000e+00
      vertex -2.999987e-03 3.972000e+00 9.000000e+00
    endloop
  endfacet
  facet normal -0.000000e+00 -6.123234e-17 1.000000e+00
    outer loop
      vertex -2.999987e-03 3.972000e+00 9.000000e+00
      vertex 1.641000e+00 -5.470000e+00 9.000000e+00
      vertex -9.999871e-04 3.972000e+00 9.000000e+00
    endloop
  endfacet
  facet normal 9.979706e-01 4.502600e-02 4.502600e-02
    outer loop
      vertex 1.215000e+00 3.970000e+00 1.999855e-03
      vertex 1.641000e+00 -5.470000e+00 -8.881784e-16
      vertex 1.215000e+00 3.972000e+00 0.000000e+00
    endloop
  endfacet
  facet normal -0.000000e+00 -6.123234e-17 1.000000e+00
    outer loop
      vertex -9.999871e-04 3.972000e+00 9.000000e+00
      vertex 1.641000e+00 -5.470000e+00 9.000000e+00
      vertex 1.000013e-03 3.972000e+00 9.000000e+00
    endloop
  endfacet
  facet normal 1.224647e-16 1.000000e+00 6.123234e-17
    outer loop
      vertex 1.215000e+00 3.972000e+00 1.999855e-03
      vertex 1.215000e+00 3.972000e+00 0.000000e+00
      vertex 5.000013e-03 3.972000e+00 1.999855e-03
    endloop
  endfacet
  facet normal 0.000000e+00 6.123234e-17 -1.000000e+00
    outer loop
      vertex 1.215000e+00 3.972000e+00 1.999855e-03
      vertex 5.000013e-03 3.972000e+00 1.999855e-03
      vertex 1.123000e+00 4.544000e+00 1.999855e-03
    endloop
  endfacet
  facet normal -0.000000e+00 -6.123234e-17 1.000000e+00
    outer loop
      vertex 5.000013e-03 3.972000e+00 9.000000e+00
      vertex 1.641000e+00 -5.470000e+00 9.000000e+00
      vertex 1.215000e+00 3.972000e+00 9.000000e+00
    endloop
  endfacet
  facet normal 0.000000e+00 -6.123234e-17 1.000000e+00
    outer loop
      vertex 5.000013e-03 3.972000e+00 9.000000e+00
      vertex 1.215000e+00 3.972000e+00 9.000000e+00
      vertex 1.123000e+00 4.544000e+00 9.000000e+00
    endloop
  endfacet
  facet normal 9.989834e-01 4.508124e-02 2.760430e-18
    outer loop
      vertex 1.215000e+00 3.970000e+00 1.999855e-03
      vertex 1.215000e+00 3.970000e+00 7.500000e+00
      vertex 1.641000e+00 -5.470000e+00 -8.881784e-16
    endloop
  endfacet
  facet normal -1.224647e-16 -1.000000e+00 -6.123234e-17
    outer loop
      vertex -1.641000e+00 -5.470000e+00 1.999855e-03
      vertex 1.641000e+00 -5.470000e+00 -8.881784e-16
      vertex 1.641000e+00 -5.470000e+00 9.000000e+00
    endloop
  endfacet
  facet normal -1.224647e-16 -1.000000e+00 -6.123234e-17
    outer loop
      vertex 1.641000e+00 -5.470000e+00 9.000000e+00
      vertex -1.641000e+00 -5.470000e+00 9.002000e+00
      vertex -1.641000e+00 -5.470000e+00 1.999855e-03
    endloop
  endfacet
  facet normal 6.094855e-04 1.843561e-04 9.999998e-01
    outer loop
      vertex -1.215000e+00 3.972000e+00 9.000000e+00
      vertex -1.641000e+00 -5.470000e+00 9.002000e+00
      vertex 1.641000e+00 -5.470000e+00 9.000000e+00
    endloop
  endfacet
  facet normal 9.989838e-01 4.507171e-02 2.759847e-18
    outer loop
      vertex 1.215000e+00 3.972000e+00 9.000000e+00
      vertex 1.641000e+00 -5.470000e+00 9.000000e+00
      vertex 1.641000e+00 -5.470000e+00 -8.881784e-16
    endloop
  endfacet
  facet normal 9.989812e-01 4.512895e-02 -6.017954e-05
    outer loop
      vertex 1.641000e+00 -5.470000e+00 -8.881784e-16
      vertex 1.215000e+00 3.970000e+00 7.500000e+00
      vertex 1.215000e+00 3.972000e+00 9.000000e+00
    endloop
  endfacet
  facet normal -8.229853e-04 3.713109e-05 -9.999996e-01
    outer loop
      vertex -1.641000e+00 -5.470000e+00 1.999855e-03
      vertex -1.215000e+00 3.972000e+00 1.999855e-03
      vertex 1.215000e+00 3.972000e+00 0.000000e+00
    endloop
  endfacet
  facet normal -6.093402e-04 -2.749194e-05 -9.999998e-01
    outer loop
      vertex 1.215000e+00 3.972000e+00 0.000000e+00
      vertex 1.641000e+00 -5.470000e+00 -8.881784e-16
      vertex -1.641000e+00 -5.470000e+00 1.999855e-03
    endloop
  endfacet
  facet normal -8.787234e-01 4.773313e-01 2.922811e-17
    outer loop
      vertex -1.123000e+00 4.544000e+00 1.999855e-03
      vertex -1.123000e+00 4.544000e+00 9.000000e+00
      vertex -8.590000e-01 5.030000e+00 9.000000e+00
    endloop
  endfacet
  facet normal -8.787234e-01 4.773313e-01 2.922811e-17
    outer loop
      vertex -8.590000e-01 5.030000e+00 9.000000e+00
      vertex -8.590000e-01 5.030000e+00 1.999855e-03
      vertex -1.123000e+00 4.544000e+00 1.999855e-03
    endloop
  endfacet
  facet normal -6.351578e-01 7.723824e-01 4.729478e-17
    outer loop
      vertex -8.590000e-01 5.030000e+00 1.999855e-03
      vertex -8.590000e-01 5.030000e+00 9.000000e+00
      vertex -4.650000e-01 5.354000e+00 9.000000e+00
    endloop
  endfacet
  facet normal -6.351578e-01 7.723824e-01 4.729478e-17
    outer loop
      vertex -4.650000e-01 5.354000e+00 9.000000e+00
      vertex -4.650000e-01 5.354000e+00 1.999855e-03
      vertex -8.590000e-01 5.030000e+00 1.999855e-03
    endloop
  endfacet
  facet normal -2.415559e-01 9.703869e-01 5.941906e-17
    outer loop
      vertex -4.650000e-01 5.354000e+00 1.999855e-03
      vertex -4.650000e-01 5.354000e+00 9.000000e+00
      vertex 1.000013e-03 5.470000e+00 9.000000e+00
    endloop
  endfacet
  facet normal -2.415559e-01 9.703869e-01 5.941906e-17
    outer loop
      vertex 1.000013e-03 5.470000e+00 9.000000e+00
      vertex 1.000013e-03 5.470000e+00 1.999855e-03
      vertex -4.650000e-01 5.354000e+00 1.999855e-03
    endloop
  endfacet
  facet normal 2.425359e-01 9.701424e-01 5.940409e-17
    outer loop
      vertex 1.000013e-03 5.470000e+00 1.999855e-03
      vertex 1.000013e-03 5.470000e+00 9.000000e+00
      vertex 4.650000e-01 5.354000e+00 9.000000e+00
    endloop
  endfacet
  facet normal 2.425359e-01 9.701424e-01 5.940409e-17
    outer loop
      vertex 4.650000e-01 5.354000e+00 9.000000e+00
      vertex 4.650000e-01 5.354000e+00 1.999855e-03
      vertex 1.000013e-03 5.470000e+00 1.999855e-03
    endloop
  endfacet
  facet normal 6.351578e-01 7.723824e-01 4.729478e-17
    outer loop
      vertex 4.650000e-01 5.354000e+00 1.999855e-03
      vertex 4.650000e-01 5.354000e+00 9.000000e+00
      vertex 8.590000e-01 5.030000e+00 9.000000e+00
    endloop
  endfacet
  facet normal 6.351578e-01 7.723824e-01 4.729478e-17
    outer loop
      vertex 8.590000e-01 5.030000e+00 9.000000e+00
      vertex 8.590000e-01 5.030000e+00 1.999855e-03
      vertex 4.650000e-01 5.354000e+00 1.999855e-03
    endloop
  endfacet
  facet normal 8.787234e-01 4.773313e-01 2.922811e-17
    outer loop
      vertex 8.590000e-01 5.030000e+00 1.999855e-03
      vertex 8.590000e-01 5.030000e+00 9.000000e+00
      vertex 1.123000e+00 4.544000e+00 9.000000e+00
    endloop
  endfacet
  facet normal 8.787234e-01 4.773313e-01 2.922811e-17
    outer loop
      vertex 1.123000e+00 4.544000e+00 9.000000e+00
      vertex 1.123000e+00 4.544000e+00 1.999855e-03
      vertex 8.590000e-01 5.030000e+00 1.999855e-03
    endloop
  endfacet
  facet normal 1.224647e-16 1.000000e+00 6.123234e-17
    outer loop
      vertex -4.999987e-03 3.972000e+00 1.999855e-03
      vertex 1.215000e+00 3.972000e+00 0.000000e+00
      vertex -1.215000e+00 3.972000e+00 1.999855e-03
    endloop
  endfacet
  facet normal 0.000000e+00 6.123234e-17 -1.000000e+00
    outer loop
      vertex -4.999987e-03 3.972000e+00 1.999855e-03
      vertex -1.123000e+00 4.544000e+00 1.999855e-03
      vertex -8.590000e-01 5.030000e+00 1.999855e-03
    endloop
  endfacet
  facet normal 0.000000e+00 6.123234e-17 -1.000000e+00
    outer loop
      vertex -8.590000e-01 5.030000e+00 1.999855e-03
      vertex -2.999987e-03 3.972000e+00 1.999855e-03
      vertex -4.999987e-03 3.972000e+00 1.999855e-03
    endloop
  endfacet
  facet normal -9.873110e-01 1.587984e-01 9.723598e-18
    outer loop
      vertex -1.215000e+00 3.972000e+00 1.999855e-03
      vertex -1.215000e+00 3.972000e+00 9.000000e+00
      vertex -1.123000e+00 4.544000e+00 9.000000e+00
    endloop
  endfacet
  facet normal -9.873110e-01 1.587984e-01 9.723598e-18
    outer loop
      vertex -1.123000e+00 4.544000e+00 9.000000e+00
      vertex -1.123000e+00 4.544000e+00 1.999855e-03
      vertex -1.215000e+00 3.972000e+00 1.999855e-03
    endloop
  endfacet
  facet normal -0.000000e+00 -6.123234e-17 1.000000e+00
    outer loop
      vertex -1.215000e+00 3.972000e+00 9.000000e+00
      vertex 1.641000e+00 -5.470000e+00 9.000000e+00
      vertex -4.999987e-03 3.972000e+00 9.000000e+00
    endloop
  endfacet
  facet normal 0.000000e+00 -6.123234e-17 1.000000e+00
    outer loop
      vertex -4.999987e-03 3.972000e+00 9.000000e+00
      vertex -2.999987e-03 3.972000e+00 9.000000e+00
      vertex -8.590000e-01 5.030000e+00 9.000000e+00
    endloop
  endfacet
  facet normal -0.000000e+00 -6.123234e-17 1.000000e+00
    outer loop
      vertex -8.590000e-01 5.030000e+00 9.000000e+00
      vertex -1.123000e+00 4.544000e+00 9.000000e+00
      vertex -4.999987e-03 3.972000e+00 9.000000e+00
    endloop
  endfacet
  facet normal 1.000000e+00 -1.224647e-16 -7.498799e-33
    outer loop
      vertex 1.215000e+00 3.972000e+00 0.000000e+00
      vertex 1.215000e+00 3.972000e+00 1.999855e-03
      vertex 1.215000e+00 3.970000e+00 1.999855e-03
    endloop
  endfacet
  facet normal 1.000000e+00 -1.224647e-16 -7.498800e-33
    outer loop
      vertex 1.215000e+00 3.972000e+00 9.000000e+00
      vertex 1.215000e+00 3.970000e+00 7.500000e+00
      vertex 1.215000e+00 3.970000e+00 1.999855e-03
    endloop
  endfacet
  facet normal 0.000000e+00 -6.123234e-17 1.000000e+00
    outer loop
      vertex -2.999987e-03 3.972000e+00 9.000000e+00
      vertex -9.999871e-04 3.972000e+00 9.000000e+00
      vertex -4.650000e-01 5.354000e+00 9.000000e+00
    endloop
  endfacet
  facet normal -0.000000e+00 -6.123234e-17 1.000000e+00
    outer loop
      vertex -4.650000e-01 5.354000e+00 9.000000e+00
      vertex -8.590000e-01 5.030000e+00 9.000000e+00
      vertex -2.999987e-03 3.972000e+00 9.000000e+00
    endloop
  endfacet
  facet normal 0.000000e+00 -6.123234e-17 1.000000e+00
    outer loop
      vertex -9.999871e-04 3.972000e+00 9.000000e+00
      vertex 1.000013e-03 3.972000e+00 9.000000e+00
      vertex 1.000013e-03 5.470000e+00 9.000000e+00
    endloop
  endfacet
  facet normal -0.000000e+00 -6.123234e-17 1.000000e+00
    outer loop
      vertex 1.000013e-03 5.470000e+00 9.000000e+00
      vertex -4.650000e-01 5.354000e+00 9.000000e+00
      vertex -9.999871e-04 3.972000e+00 9.000000e+00
    endloop
  endfacet
  facet normal 1.224647e-16 9.999999e-01 6.123234e-17
    outer loop
      vertex 1.215000e+00 3.972000e+00 0.000000e+00
      vertex -4.999987e-03 3.972000e+00 1.999855e-03
      vertex -2.999987e-03 3.972000e+00 1.999855e-03
    endloop
  endfacet
  facet normal 1.224647e-16 1.000000e+00 6.123234e-17
    outer loop
      vertex -2.999987e-03 3.972000e+00 1.999855e-03
      vertex -9.999871e-04 3.972000e+00 1.999855e-03
      vertex 1.215000e+00 3.972000e+00 0.000000e+00
    endloop
  endfacet
  facet normal 0.000000e+00 6.123234e-17 -1.000000e+00
    outer loop
      vertex -2.999987e-03 3.972000e+00 1.999855e-03
      vertex -8.590000e-01 5.030000e+00 1.999855e-03
      vertex -4.650000e-01 5.354000e+00 1.999855e-03
    endloop
  endfacet
  facet normal 0.000000e+00 6.123234e-17 -1.000000e+00
    outer loop
      vertex -4.650000e-01 5.354000e+00 1.999855e-03
      vertex -9.999871e-04 3.972000e+00 1.999855e-03
      vertex -2.999987e-03 3.972000e+00 1.999855e-03
    endloop
  endfacet
  facet normal 0.000000e+00 6.123234e-17 -1.000000e+00
    outer loop
      vertex -9.999871e-04 3.972000e+00 1.999855e-03
      vertex -4.650000e-01 5.354000e+00 1.999855e-03
      vertex 1.000013e-03 5.470000e+00 1.999855e-03
    endloop
  endfacet
  facet normal 0.000000e+00 6.123234e-17 -1.000000e+00
    outer loop
      vertex 1.000013e-03 5.470000e+00 1.999855e-03
      vertex 1.000013e-03 3.972000e+00 1.999855e-03
      vertex -9.999871e-04 3.972000e+00 1.999855e-03
    endloop
  endfacet
  facet normal -0.000000e+00 -6.123234e-17 1.000000e+00
    outer loop
      vertex -1.215000e+00 3.970000e+00 1.999855e-03
      vertex -1.215000e+00 3.972000e+00 1.999855e-03
      vertex -1.641000e+00 -5.470000e+00 1.999855e-03
    endloop
  endfacet
  facet normal 1.224647e-16 1.000000e+00 6.123234e-17
    outer loop
      vertex 1.215000e+00 3.972000e+00 0.000000e+00
      vertex -9.999871e-04 3.972000e+00 1.999855e-03
      vertex 1.000013e-03 3.972000e+00 1.999855e-03
    endloop
  endfacet
  facet normal 0.000000e+00 6.123234e-17 -1.000000e+00
    outer loop
      vertex 1.000013e-03 5.470000e+00 1.999855e-03
      vertex 4.650000e-01 5.354000e+00 1.999855e-03
      vertex 1.000013e-03 3.972000e+00 1.999855e-03
    endloop
  endfacet
  facet normal 0.000000e+00 6.123234e-17 -1.000000e+00
    outer loop
      vertex 1.000013e-03 3.972000e+00 1.999855e-03
      vertex 4.650000e-01 5.354000e+00 1.999855e-03
      vertex 8.590000e-01 5.030000e+00 1.999855e-03
    endloop
  endfacet
  facet normal 0.000000e+00 6.123234e-17 -1.000000e+00
    outer loop
      vertex 8.590000e-01 5.030000e+00 1.999855e-03
      vertex 3.000013e-03 3.972000e+00 1.999855e-03
      vertex 1.000013e-03 3.972000e+00 1.999855e-03
    endloop
  endfacet
  facet normal 0.000000e+00 -6.123234e-17 1.000000e+00
    outer loop
      vertex 1.000013e-03 3.972000e+00 9.000000e+00
      vertex 4.650000e-01 5.354000e+00 9.000000e+00
      vertex 1.000013e-03 5.470000e+00 9.000000e+00
    endloop
  endfacet
  facet normal 0.000000e+00 -6.123234e-17 1.000000e+00
    outer loop
      vertex 1.000013e-03 3.972000e+00 9.000000e+00
      vertex 3.000013e-03 3.972000e+00 9.000000e+00
      vertex 8.590000e-01 5.030000e+00 9.000000e+00
    endloop
  endfacet
  facet normal -0.000000e+00 -6.123234e-17 1.000000e+00
    outer loop
      vertex 8.590000e-01 5.030000e+00 9.000000e+00
      vertex 4.650000e-01 5.354000e+00 9.000000e+00
      vertex 1.000013e-03 3.972000e+00 9.000000e+00
    endloop
  endfacet
  facet normal 1.224647e-16 1.000000e+00 6.123234e-17
    outer loop
      vertex 3.000013e-03 3.972000e+00 1.999855e-03
      vertex 5.000013e-03 3.972000e+00 1.999855e-03
      vertex 1.215000e+00 3.972000e+00 0.000000e+00
    endloop
  endfacet
  facet normal 1.224647e-16 9.999999e-01 6.123234e-17
    outer loop
      vertex 1.215000e+00 3.972000e+00 0.000000e+00
      vertex 1.000013e-03 3.972000e+00 1.999855e-03
      vertex 3.000013e-03 3.972000e+00 1.999855e-03
    endloop
  endfacet
  facet normal 0.000000e+00 6.123234e-17 -1.000000e+00
    outer loop
      vertex 5.000013e-03 3.972000e+00 1.999855e-03
      vertex 3.000013e-03 3.972000e+00 1.999855e-03
      vertex 8.590000e-01 5.030000e+00 1.999855e-03
    endloop
  endfacet
  facet normal 0.000000e+00 6.123234e-17 -1.000000e+00
    outer loop
      vertex 8.590000e-01 5.030000e+00 1.999855e-03
      vertex 1.123000e+00 4.544000e+00 1.999855e-03
      vertex 5.000013e-03 3.972000e+00 1.999855e-03
    endloop
  endfacet
  facet normal -0.000000e+00 -6.123234e-17 1.000000e+00
    outer loop
      vertex 3.000013e-03 3.972000e+00 9.000000e+00
      vertex 1.641000e+00 -5.470000e+00 9.000000e+00
      vertex 5.000013e-03 3.972000e+00 9.000000e+00
    endloop
  endfacet
  facet normal -0.000000e+00 -6.123234e-17 1.000000e+00
    outer loop
      vertex 1.000013e-03 3.972000e+00 9.000000e+00
      vertex 1.641000e+00 -5.470000e+00 9.000000e+00
      vertex 3.000013e-03 3.972000e+00 9.000000e+00
    endloop
  endfacet
  facet normal -0.000000e+00 -6.123234e-17 1.000000e+00
    outer loop
      vertex 5.000013e-03 3.972000e+00 9.000000e+00
      vertex 1.123000e+00 4.544000e+00 9.000000e+00
      vertex 8.590000e-01 5.030000e+00 9.000000e+00
    endloop
  endfacet
  facet normal -0.000000e+00 -6.123234e-17 1.000000e+00
    outer loop
      vertex 8.590000e-01 5.030000e+00 9.000000e+00
      vertex 3.000013e-03 3.972000e+00 9.000000e+00
      vertex 5.000013e-03 3.972000e+00 9.000000e+00
    endloop
  endfacet
  facet normal -1.000000e+00 1.224647e-16 7.498799e-33
    outer loop
      vertex -1.215000e+00 3.972000e+00 1.999855e-03
      vertex -1.215000e+00 3.970000e+00 1.999855e-03
      vertex -1.215000e+00 3.972000e+00 9.000000e+00
    endloop
  endfacet
  facet normal 1.000000e+00 -1.224647e-16 -7.498799e-33
    outer loop
      vertex 1.215000e+00 3.972000e+00 9.000000e+00
      vertex 1.215000e+00 3.970000e+00 1.999855e-03
      vertex 1.215000e+00 3.972000e+00 1.999855e-03
    endloop
  endfacet
  facet normal 9.873110e-01 1.587984e-01 9.723598e-18
    outer loop
      vertex 1.123000e+00 4.544000e+00 9.000000e+00
      vertex 1.215000e+00 3.972000e+00 9.000000e+00
      vertex 1.215000e+00 3.972000e+00 1.999855e-03
    endloop
  endfacet
  facet normal 9.873110e-01 1.587984e-01 9.723598e-18
    outer loop
      vertex 1.215000e+00 3.972000e+00 1.999855e-03
      vertex 1.123000e+00 4.544000e+00 1.999855e-03
      vertex 1.123000e+00 4.544000e+00 9.000000e+00
    endloop
  endfacet
  facet normal -9.989833e-01 4.508124e-02 2.760430e-18
    outer loop
      vertex -1.641000e+00 -5.470000e+00 1.999855e-03
      vertex -1.641000e+00 -5.470000e+00 9.002000e+00
      vertex -1.215000e+00 3.970000e+00 1.999855e-03
    endloop
  endfacet
  facet normal -9.989837e-01 4.507170e-02 -1.001743e-05
    outer loop
      vertex -1.215000e+00 3.972000e+00 9.000000e+00
      vertex -1.215000e+00 3.970000e+00 1.999855e-03
      vertex -1.641000e+00 -5.470000e+00 9.002000e+00
    endloop
  endfacet
endsolid Default
