solid Default
  facet normal -1.000000e+00 0.000000e+00 0.000000e+00
    outer loop
      vertex -9.175000e+00 9.536743e-07 2.342001e+00
      vertex -9.175000e+00 -2.035998e+00 4.378001e+00
      vertex -9.175000e+00 -7.439985e-01 5.124001e+00
    endloop
  endfacet
  facet normal 1.000000e+00 0.000000e+00 0.000000e+00
    outer loop
      vertex 9.175000e+00 9.536743e-07 2.342001e+00
      vertex 9.175000e+00 -7.439985e-01 5.124001e+00
      vertex 9.175000e+00 -2.035998e+00 4.378001e+00
    endloop
  endfacet
  facet normal -1.000000e+00 0.000000e+00 0.000000e+00
    outer loop
      vertex -9.175000e+00 9.536743e-07 2.342001e+00
      vertex -9.175000e+00 -2.782001e+00 3.086000e+00
      vertex -9.175000e+00 -2.035998e+00 4.378001e+00
    endloop
  endfacet
  facet normal 1.000000e+00 0.000000e+00 0.000000e+00
    outer loop
      vertex 9.175000e+00 9.536743e-07 2.342001e+00
      vertex 9.175000e+00 -2.035998e+00 4.378001e+00
      vertex 9.175000e+00 -2.782001e+00 3.086000e+00
    endloop
  endfacet
  facet normal -1.000000e+00 0.000000e+00 0.000000e+00
    outer loop
      vertex -9.175000e+00 9.536743e-07 2.342001e+00
      vertex -9.175000e+00 -2.782001e+00 1.596001e+00
      vertex -9.175000e+00 -2.782001e+00 3.086000e+00
    endloop
  endfacet
  facet normal 1.000000e+00 0.000000e+00 0.000000e+00
    outer loop
      vertex 9.175000e+00 9.536743e-07 2.342001e+00
      vertex 9.175000e+00 -2.782001e+00 3.086000e+00
      vertex 9.175000e+00 -2.782001e+00 1.596001e+00
    endloop
  endfacet
  facet normal -1.000000e+00 0.000000e+00 0.000000e+00
    outer loop
      vertex -9.175000e+00 9.536743e-07 2.342001e+00
      vertex -9.175000e+00 -2.035998e+00 3.040009e-01
      vertex -9.175000e+00 -2.782001e+00 1.596001e+00
    endloop
  endfacet
  facet normal 1.000000e+00 0.000000e+00 0.000000e+00
    outer loop
      vertex 9.175000e+00 9.536743e-07 2.342001e+00
      vertex 9.175000e+00 -2.782001e+00 1.596001e+00
      vertex 9.175000e+00 -2.035998e+00 3.040009e-01
    endloop
  endfacet
  facet normal -1.000000e+00 0.000000e+00 0.000000e+00
    outer loop
      vertex -9.175000e+00 9.536743e-07 2.342001e+00
      vertex -9.175000e+00 -7.439985e-01 0.000000e+00
      vertex -9.175000e+00 -2.035998e+00 3.040009e-01
    endloop
  endfacet
  facet normal 1.000000e+00 0.000000e+00 0.000000e+00
    outer loop
      vertex 9.175000e+00 9.536743e-07 2.342001e+00
      vertex 9.175000e+00 -2.035998e+00 3.040009e-01
      vertex 9.175000e+00 -7.439985e-01 0.000000e+00
    endloop
  endfacet
  facet normal -1.000000e+00 0.000000e+00 0.000000e+00
    outer loop
      vertex -9.175000e+00 9.536743e-07 2.342001e+00
      vertex -9.175000e+00 7.460012e-01 0.000000e+00
      vertex -9.175000e+00 -7.439985e-01 0.000000e+00
    endloop
  endfacet
  facet normal 1.000000e+00 0.000000e+00 0.000000e+00
    outer loop
      vertex 9.175000e+00 9.536743e-07 2.342001e+00
      vertex 9.175000e+00 -7.439985e-01 0.000000e+00
      vertex 9.175000e+00 7.460012e-01 0.000000e+00
    endloop
  endfacet
  facet normal -9.999989e-01 1.440638e-03 4.588881e-04
    outer loop
      vertex -9.175000e+00 9.536743e-07 2.342001e+00
      vertex -9.172999e+00 2.038001e+00 3.040009e-01
      vertex -9.175000e+00 7.460012e-01 0.000000e+00
    endloop
  endfacet
  facet normal 1.000000e+00 0.000000e+00 0.000000e+00
    outer loop
      vertex 9.175000e+00 9.536743e-07 2.342001e+00
      vertex 9.175000e+00 7.460012e-01 0.000000e+00
      vertex 9.175000e+00 2.038001e+00 3.040009e-01
    endloop
  endfacet
  facet normal -9.999997e-01 6.229971e-04 -3.587536e-04
    outer loop
      vertex -9.175000e+00 9.536743e-07 2.342001e+00
      vertex -9.172999e+00 2.782001e+00 1.596001e+00
      vertex -9.172999e+00 2.038001e+00 3.040009e-01
    endloop
  endfacet
  facet normal 1.000000e+00 0.000000e+00 0.000000e+00
    outer loop
      vertex 9.175000e+00 9.536743e-07 2.342001e+00
      vertex 9.175000e+00 2.038001e+00 3.040009e-01
      vertex 9.175000e+00 2.782001e+00 1.596001e+00
    endloop
  endfacet
  facet normal -9.999998e-01 7.191979e-04 0.000000e+00
    outer loop
      vertex -9.175000e+00 9.536743e-07 2.342001e+00
      vertex -9.172999e+00 2.782001e+00 3.086000e+00
      vertex -9.172999e+00 2.782001e+00 1.596001e+00
    endloop
  endfacet
  facet normal 1.000000e+00 0.000000e+00 0.000000e+00
    outer loop
      vertex 9.175000e+00 9.536743e-07 2.342001e+00
      vertex 9.175000e+00 2.782001e+00 1.596001e+00
      vertex 9.175000e+00 2.782001e+00 3.086000e+00
    endloop
  endfacet
  facet normal -9.999997e-01 6.232207e-04 3.588822e-04
    outer loop
      vertex -9.175000e+00 9.536743e-07 2.342001e+00
      vertex -9.172999e+00 2.038001e+00 4.378001e+00
      vertex -9.172999e+00 2.782001e+00 3.086000e+00
    endloop
  endfacet
  facet normal 1.000000e+00 0.000000e+00 0.000000e+00
    outer loop
      vertex 9.175000e+00 9.536743e-07 2.342001e+00
      vertex 9.175000e+00 2.782001e+00 3.086000e+00
      vertex 9.175000e+00 2.038001e+00 4.378001e+00
    endloop
  endfacet
  facet normal -9.999990e-01 1.340986e-03 -3.595888e-04
    outer loop
      vertex -9.175000e+00 9.536743e-07 2.342001e+00
      vertex -9.175000e+00 7.460012e-01 5.124001e+00
      vertex -9.172999e+00 2.038001e+00 4.378001e+00
    endloop
  endfacet
  facet normal 1.000000e+00 0.000000e+00 0.000000e+00
    outer loop
      vertex 9.175000e+00 9.536743e-07 2.342001e+00
      vertex 9.175000e+00 2.038001e+00 4.378001e+00
      vertex 9.175000e+00 7.460012e-01 5.124001e+00
    endloop
  endfacet
  facet normal -1.000000e+00 0.000000e+00 0.000000e+00
    outer loop
      vertex -9.175000e+00 7.460012e-01 5.124001e+00
      vertex -9.175000e+00 9.536743e-07 2.342001e+00
      vertex -9.175000e+00 -7.439985e-01 5.124001e+00
    endloop
  endfacet
  facet normal 1.000000e+00 0.000000e+00 0.000000e+00
    outer loop
      vertex 9.175000e+00 9.536743e-07 2.342001e+00
      vertex 9.175000e+00 7.460012e-01 5.124001e+00
      vertex 9.175000e+00 -7.439985e-01 5.124001e+00
    endloop
  endfacet
  facet normal 0.000000e+00 -5.000319e-01 8.660071e-01
    outer loop
      vertex -9.175000e+00 -7.439985e-01 5.124001e+00
      vertex 7.175000e+00 -2.035998e+00 4.378001e+00
      vertex 6.425000e+00 -7.439985e-01 5.124001e+00
    endloop
  endfacet
  facet normal 0.000000e+00 -5.000319e-01 8.660070e-01
    outer loop
      vertex 7.175000e+00 -2.035998e+00 4.378001e+00
      vertex -9.175000e+00 -7.439985e-01 5.124001e+00
      vertex -9.175000e+00 -2.035998e+00 4.378001e+00
    endloop
  endfacet
  facet normal 0.000000e+00 -5.000318e-01 8.660070e-01
    outer loop
      vertex 6.425000e+00 -7.439985e-01 5.124001e+00
      vertex 9.175000e+00 -2.035998e+00 4.378001e+00
      vertex 9.175000e+00 -7.439985e-01 5.124001e+00
    endloop
  endfacet
  facet normal 0.000000e+00 -5.000318e-01 8.660070e-01
    outer loop
      vertex 9.175000e+00 -2.035998e+00 4.378001e+00
      vertex 6.425000e+00 -7.439985e-01 5.124001e+00
      vertex 7.175000e+00 -2.035998e+00 4.378001e+00
    endloop
  endfacet
  facet normal 0.000000e+00 -8.660064e-01 5.000329e-01
    outer loop
      vertex -9.175000e+00 -2.035998e+00 4.378001e+00
      vertex 7.175000e+00 -2.782001e+00 3.086000e+00
      vertex 7.175000e+00 -2.035998e+00 4.378001e+00
    endloop
  endfacet
  facet normal 0.000000e+00 -8.660064e-01 5.000329e-01
    outer loop
      vertex 7.175000e+00 -2.782001e+00 3.086000e+00
      vertex -9.175000e+00 -2.035998e+00 4.378001e+00
      vertex -9.175000e+00 -2.782001e+00 3.086000e+00
    endloop
  endfacet
  facet normal 0.000000e+00 -8.660064e-01 5.000329e-01
    outer loop
      vertex 7.175000e+00 -2.035998e+00 4.378001e+00
      vertex 9.175000e+00 -2.782001e+00 3.086000e+00
      vertex 9.175000e+00 -2.035998e+00 4.378001e+00
    endloop
  endfacet
  facet normal 0.000000e+00 -8.660064e-01 5.000329e-01
    outer loop
      vertex 9.175000e+00 -2.782001e+00 3.086000e+00
      vertex 7.175000e+00 -2.035998e+00 4.378001e+00
      vertex 7.175000e+00 -2.782001e+00 3.086000e+00
    endloop
  endfacet
  facet normal 0.000000e+00 -1.000000e+00 0.000000e+00
    outer loop
      vertex -9.175000e+00 -2.782001e+00 3.086000e+00
      vertex 6.425000e+00 -2.782001e+00 1.596001e+00
      vertex 7.175000e+00 -2.782001e+00 3.086000e+00
    endloop
  endfacet
  facet normal 0.000000e+00 -1.000000e+00 0.000000e+00
    outer loop
      vertex 6.425000e+00 -2.782001e+00 1.596001e+00
      vertex -9.175000e+00 -2.782001e+00 3.086000e+00
      vertex -9.175000e+00 -2.782001e+00 1.596001e+00
    endloop
  endfacet
  facet normal 0.000000e+00 -1.000000e+00 0.000000e+00
    outer loop
      vertex 7.175000e+00 -2.782001e+00 3.086000e+00
      vertex 9.175000e+00 -2.782001e+00 1.596001e+00
      vertex 9.175000e+00 -2.782001e+00 3.086000e+00
    endloop
  endfacet
  facet normal 0.000000e+00 -1.000000e+00 0.000000e+00
    outer loop
      vertex 9.175000e+00 -2.782001e+00 1.596001e+00
      vertex 7.175000e+00 -2.782001e+00 3.086000e+00
      vertex 6.425000e+00 -2.782001e+00 1.596001e+00
    endloop
  endfacet
  facet normal 0.000000e+00 -8.660063e-01 -5.000331e-01
    outer loop
      vertex -9.175000e+00 -2.782001e+00 1.596001e+00
      vertex 6.425000e+00 -2.035998e+00 3.040009e-01
      vertex 6.425000e+00 -2.782001e+00 1.596001e+00
    endloop
  endfacet
  facet normal -0.000000e+00 -8.660063e-01 -5.000331e-01
    outer loop
      vertex 6.425000e+00 -2.035998e+00 3.040009e-01
      vertex -9.175000e+00 -2.782001e+00 1.596001e+00
      vertex -9.175000e+00 -2.035998e+00 3.040009e-01
    endloop
  endfacet
  facet normal 0.000000e+00 -2.290400e-01 -9.734170e-01
    outer loop
      vertex -9.175000e+00 -2.035998e+00 3.040009e-01
      vertex 7.175000e+00 -7.439985e-01 0.000000e+00
      vertex 6.425000e+00 -2.035998e+00 3.040009e-01
    endloop
  endfacet
  facet normal -0.000000e+00 -2.290400e-01 -9.734170e-01
    outer loop
      vertex 7.175000e+00 -7.439985e-01 0.000000e+00
      vertex -9.175000e+00 -2.035998e+00 3.040009e-01
      vertex -9.175000e+00 -7.439985e-01 0.000000e+00
    endloop
  endfacet
  facet normal 0.000000e+00 -2.290400e-01 -9.734170e-01
    outer loop
      vertex 6.425000e+00 -2.035998e+00 3.040009e-01
      vertex 9.175000e+00 -7.439985e-01 0.000000e+00
      vertex 9.175000e+00 -2.035998e+00 3.040009e-01
    endloop
  endfacet
  facet normal -0.000000e+00 -2.290400e-01 -9.734170e-01
    outer loop
      vertex 9.175000e+00 -7.439985e-01 0.000000e+00
      vertex 6.425000e+00 -2.035998e+00 3.040009e-01
      vertex 7.175000e+00 -7.439985e-01 0.000000e+00
    endloop
  endfacet
  facet normal 0.000000e+00 0.000000e+00 -1.000000e+00
    outer loop
      vertex -9.175000e+00 -7.439985e-01 0.000000e+00
      vertex 7.175000e+00 7.460012e-01 0.000000e+00
      vertex 7.175000e+00 -7.439985e-01 0.000000e+00
    endloop
  endfacet
  facet normal 0.000000e+00 0.000000e+00 -1.000000e+00
    outer loop
      vertex 7.175000e+00 7.460012e-01 0.000000e+00
      vertex -9.175000e+00 -7.439985e-01 0.000000e+00
      vertex -9.175000e+00 7.460012e-01 0.000000e+00
    endloop
  endfacet
  facet normal 0.000000e+00 0.000000e+00 -1.000000e+00
    outer loop
      vertex 7.175000e+00 -7.439985e-01 0.000000e+00
      vertex 9.175000e+00 7.460012e-01 0.000000e+00
      vertex 9.175000e+00 -7.439985e-01 0.000000e+00
    endloop
  endfacet
  facet normal 0.000000e+00 0.000000e+00 -1.000000e+00
    outer loop
      vertex 9.175000e+00 7.460012e-01 0.000000e+00
      vertex 7.175000e+00 -7.439985e-01 0.000000e+00
      vertex 7.175000e+00 7.460012e-01 0.000000e+00
    endloop
  endfacet
  facet normal 0.000000e+00 2.290400e-01 -9.734170e-01
    outer loop
      vertex -9.175000e+00 7.460012e-01 0.000000e+00
      vertex 6.425000e+00 2.038001e+00 3.040009e-01
      vertex 7.175000e+00 7.460012e-01 0.000000e+00
    endloop
  endfacet
  facet normal 0.000000e+00 2.290400e-01 -9.734170e-01
    outer loop
      vertex 6.425000e+00 2.038001e+00 3.040009e-01
      vertex -9.175000e+00 7.460012e-01 0.000000e+00
      vertex -9.172999e+00 2.038001e+00 3.040009e-01
    endloop
  endfacet
  facet normal 0.000000e+00 2.290400e-01 -9.734170e-01
    outer loop
      vertex 7.175000e+00 7.460012e-01 0.000000e+00
      vertex 9.175000e+00 2.038001e+00 3.040009e-01
      vertex 9.175000e+00 7.460012e-01 0.000000e+00
    endloop
  endfacet
  facet normal 0.000000e+00 2.290400e-01 -9.734170e-01
    outer loop
      vertex 9.175000e+00 2.038001e+00 3.040009e-01
      vertex 7.175000e+00 7.460012e-01 0.000000e+00
      vertex 6.425000e+00 2.038001e+00 3.040009e-01
    endloop
  endfacet
  facet normal 0.000000e+00 8.665875e-01 -4.990253e-01
    outer loop
      vertex -9.172999e+00 2.038001e+00 3.040009e-01
      vertex 6.425000e+00 2.782001e+00 1.596001e+00
      vertex 6.425000e+00 2.038001e+00 3.040009e-01
    endloop
  endfacet
  facet normal 0.000000e+00 8.665875e-01 -4.990253e-01
    outer loop
      vertex 6.425000e+00 2.782001e+00 1.596001e+00
      vertex -9.172999e+00 2.038001e+00 3.040009e-01
      vertex -9.172999e+00 2.782001e+00 1.596001e+00
    endloop
  endfacet
  facet normal 0.000000e+00 1.000000e+00 0.000000e+00
    outer loop
      vertex -9.172999e+00 2.782001e+00 1.596001e+00
      vertex 7.175000e+00 2.782001e+00 3.086000e+00
      vertex 6.425000e+00 2.782001e+00 1.596001e+00
    endloop
  endfacet
  facet normal 0.000000e+00 1.000000e+00 0.000000e+00
    outer loop
      vertex 7.175000e+00 2.782001e+00 3.086000e+00
      vertex -9.172999e+00 2.782001e+00 1.596001e+00
      vertex -9.172999e+00 2.782001e+00 3.086000e+00
    endloop
  endfacet
  facet normal 0.000000e+00 1.000000e+00 0.000000e+00
    outer loop
      vertex 6.425000e+00 2.782001e+00 1.596001e+00
      vertex 9.175000e+00 2.782001e+00 3.086000e+00
      vertex 9.175000e+00 2.782001e+00 1.596001e+00
    endloop
  endfacet
  facet normal 0.000000e+00 1.000000e+00 0.000000e+00
    outer loop
      vertex 9.175000e+00 2.782001e+00 3.086000e+00
      vertex 6.425000e+00 2.782001e+00 1.596001e+00
      vertex 7.175000e+00 2.782001e+00 3.086000e+00
    endloop
  endfacet
  facet normal 0.000000e+00 8.665875e-01 4.990252e-01
    outer loop
      vertex -9.172999e+00 2.782001e+00 3.086000e+00
      vertex 7.175000e+00 2.038001e+00 4.378001e+00
      vertex 7.175000e+00 2.782001e+00 3.086000e+00
    endloop
  endfacet
  facet normal 0.000000e+00 8.665875e-01 4.990252e-01
    outer loop
      vertex 7.175000e+00 2.038001e+00 4.378001e+00
      vertex -9.172999e+00 2.782001e+00 3.086000e+00
      vertex -9.172999e+00 2.038001e+00 4.378001e+00
    endloop
  endfacet
  facet normal 0.000000e+00 8.665875e-01 4.990252e-01
    outer loop
      vertex 7.175000e+00 2.782001e+00 3.086000e+00
      vertex 9.175000e+00 2.038001e+00 4.378001e+00
      vertex 9.175000e+00 2.782001e+00 3.086000e+00
    endloop
  endfacet
  facet normal 0.000000e+00 8.665875e-01 4.990252e-01
    outer loop
      vertex 9.175000e+00 2.038001e+00 4.378001e+00
      vertex 7.175000e+00 2.782001e+00 3.086000e+00
      vertex 7.175000e+00 2.038001e+00 4.378001e+00
    endloop
  endfacet
  facet normal 0.000000e+00 5.000319e-01 8.660071e-01
    outer loop
      vertex -9.172999e+00 2.038001e+00 4.378001e+00
      vertex 6.425000e+00 7.460012e-01 5.124001e+00
      vertex 7.175000e+00 2.038001e+00 4.378001e+00
    endloop
  endfacet
  facet normal 0.000000e+00 5.000319e-01 8.660071e-01
    outer loop
      vertex 6.425000e+00 7.460012e-01 5.124001e+00
      vertex -9.172999e+00 2.038001e+00 4.378001e+00
      vertex -9.175000e+00 7.460012e-01 5.124001e+00
    endloop
  endfacet
  facet normal 0.000000e+00 5.000318e-01 8.660070e-01
    outer loop
      vertex 7.175000e+00 2.038001e+00 4.378001e+00
      vertex 9.175000e+00 7.460012e-01 5.124001e+00
      vertex 9.175000e+00 2.038001e+00 4.378001e+00
    endloop
  endfacet
  facet normal 0.000000e+00 5.000318e-01 8.660070e-01
    outer loop
      vertex 9.175000e+00 7.460012e-01 5.124001e+00
      vertex 7.175000e+00 2.038001e+00 4.378001e+00
      vertex 6.425000e+00 7.460012e-01 5.124001e+00
    endloop
  endfacet
  facet normal 0.000000e+00 0.000000e+00 1.000000e+00
    outer loop
      vertex 6.425000e+00 -7.439985e-01 5.124001e+00
      vertex -9.175000e+00 7.460012e-01 5.124001e+00
      vertex -9.175000e+00 -7.439985e-01 5.124001e+00
    endloop
  endfacet
  facet normal 0.000000e+00 0.000000e+00 1.000000e+00
    outer loop
      vertex -9.175000e+00 7.460012e-01 5.124001e+00
      vertex 6.425000e+00 -7.439985e-01 5.124001e+00
      vertex 6.425000e+00 7.460012e-01 5.124001e+00
    endloop
  endfacet
  facet normal 0.000000e+00 0.000000e+00 1.000000e+00
    outer loop
      vertex 9.175000e+00 -7.439985e-01 5.124001e+00
      vertex 6.425000e+00 7.460012e-01 5.124001e+00
      vertex 6.425000e+00 -7.439985e-01 5.124001e+00
    endloop
  endfacet
  facet normal 0.000000e+00 0.000000e+00 1.000000e+00
    outer loop
      vertex 6.425000e+00 7.460012e-01 5.124001e+00
      vertex 9.175000e+00 -7.439985e-01 5.124001e+00
      vertex 9.175000e+00 7.460012e-01 5.124001e+00
    endloop
  endfacet
  facet normal 0.000000e+00 8.665874e-01 -4.990253e-01
    outer loop
      vertex 6.425000e+00 2.038001e+00 3.040009e-01
      vertex 9.175000e+00 2.782001e+00 1.596001e+00
      vertex 9.175000e+00 2.038001e+00 3.040009e-01
    endloop
  endfacet
  facet normal 0.000000e+00 8.665874e-01 -4.990253e-01
    outer loop
      vertex 9.175000e+00 2.782001e+00 1.596001e+00
      vertex 6.425000e+00 2.038001e+00 3.040009e-01
      vertex 6.425000e+00 2.782001e+00 1.596001e+00
    endloop
  endfacet
  facet normal 0.000000e+00 -8.660063e-01 -5.000331e-01
    outer loop
      vertex 6.425000e+00 -2.782001e+00 1.596001e+00
      vertex 9.175000e+00 -2.035998e+00 3.040009e-01
      vertex 9.175000e+00 -2.782001e+00 1.596001e+00
    endloop
  endfacet
  facet normal -0.000000e+00 -8.660063e-01 -5.000331e-01
    outer loop
      vertex 9.175000e+00 -2.035998e+00 3.040009e-01
      vertex 6.425000e+00 -2.782001e+00 1.596001e+00
      vertex 6.425000e+00 -2.035998e+00 3.040009e-01
    endloop
  endfacet
endsolid Default
