solid Default
  facet normal -1.000000e+00 0.000000e+00 0.000000e+00
    outer loop
      vertex -9.250000e+00 4.016602e-04 3.120034e+00
      vertex -9.250000e+00 -2.828552e+00 2.909446e-01
      vertex -9.250000e+00 -3.863628e+00 2.084959e+00
    endloop
  endfacet
  facet normal 1.000000e+00 0.000000e+00 0.000000e+00
    outer loop
      vertex 9.250000e+00 4.016602e-04 3.120034e+00
      vertex 9.250000e+00 -3.863628e+00 2.084959e+00
      vertex 9.250000e+00 -2.828552e+00 2.909446e-01
    endloop
  endfacet
  facet normal -1.000000e+00 0.000000e+00 0.000000e+00
    outer loop
      vertex -9.250000e+00 4.016602e-04 3.120034e+00
      vertex -9.250000e+00 -1.031664e+00 0.000000e+00
      vertex -9.250000e+00 -2.828552e+00 2.909446e-01
    endloop
  endfacet
  facet normal 1.000000e+00 0.000000e+00 0.000000e+00
    outer loop
      vertex 9.250000e+00 4.016602e-04 3.120034e+00
      vertex 9.250000e+00 -2.828552e+00 2.909446e-01
      vertex 9.250000e+00 -1.031664e+00 0.000000e+00
    endloop
  endfacet
  facet normal -1.000000e+00 0.000000e+00 -0.000000e+00
    outer loop
      vertex -9.250000e+00 4.016602e-04 3.120034e+00
      vertex -9.250000e+00 1.038352e+00 3.552714e-15
      vertex -9.250000e+00 -1.031664e+00 0.000000e+00
    endloop
  endfacet
  facet normal 1.000000e+00 0.000000e+00 0.000000e+00
    outer loop
      vertex 9.250000e+00 4.016602e-04 3.120034e+00
      vertex 9.250000e+00 -1.031664e+00 0.000000e+00
      vertex 9.250000e+00 1.038352e+00 3.552714e-15
    endloop
  endfacet
  facet normal -1.000000e+00 0.000000e+00 0.000000e+00
    outer loop
      vertex -9.250000e+00 4.016602e-04 3.120034e+00
      vertex -9.250000e+00 2.829491e+00 2.910808e-01
      vertex -9.250000e+00 1.038352e+00 3.552714e-15
    endloop
  endfacet
  facet normal 1.000000e+00 0.000000e+00 0.000000e+00
    outer loop
      vertex 9.250000e+00 4.016602e-04 3.120034e+00
      vertex 9.250000e+00 1.038352e+00 3.552714e-15
      vertex 9.250000e+00 2.829491e+00 2.910808e-01
    endloop
  endfacet
  facet normal -1.000000e+00 0.000000e+00 0.000000e+00
    outer loop
      vertex -9.250000e+00 4.016602e-04 3.120034e+00
      vertex -9.250000e+00 3.864431e+00 2.085095e+00
      vertex -9.250000e+00 2.829491e+00 2.910808e-01
    endloop
  endfacet
  facet normal 1.000000e+00 0.000000e+00 0.000000e+00
    outer loop
      vertex 9.250000e+00 4.016602e-04 3.120034e+00
      vertex 9.250000e+00 2.829491e+00 2.910808e-01
      vertex 9.250000e+00 3.864431e+00 2.085095e+00
    endloop
  endfacet
  facet normal -1.000000e+00 0.000000e+00 0.000000e+00
    outer loop
      vertex -9.250000e+00 4.016602e-04 3.120034e+00
      vertex -9.250000e+00 3.864431e+00 4.155110e+00
      vertex -9.250000e+00 3.864431e+00 2.085095e+00
    endloop
  endfacet
  facet normal 1.000000e+00 0.000000e+00 0.000000e+00
    outer loop
      vertex 9.250000e+00 4.016602e-04 3.120034e+00
      vertex 9.250000e+00 3.864431e+00 2.085095e+00
      vertex 9.250000e+00 3.864431e+00 4.155110e+00
    endloop
  endfacet
  facet normal -9.999995e-01 -2.587605e-04 9.659750e-04
    outer loop
      vertex -9.250000e+00 4.016602e-04 3.120034e+00
      vertex -9.247999e+00 2.829355e+00 5.949123e+00
      vertex -9.250000e+00 3.864431e+00 4.155110e+00
    endloop
  endfacet
  facet normal 1.000000e+00 0.000000e+00 0.000000e+00
    outer loop
      vertex 9.250000e+00 4.016602e-04 3.120034e+00
      vertex 9.250000e+00 3.864431e+00 4.155110e+00
      vertex 9.250000e+00 2.829355e+00 5.949123e+00
    endloop
  endfacet
  facet normal -9.999999e-01 2.587355e-04 4.485040e-04
    outer loop
      vertex -9.250000e+00 4.016602e-04 3.120034e+00
      vertex -9.247999e+00 1.035342e+00 6.984063e+00
      vertex -9.247999e+00 2.829355e+00 5.949123e+00
    endloop
  endfacet
  facet normal 1.000000e+00 0.000000e+00 0.000000e+00
    outer loop
      vertex 9.250000e+00 4.016602e-04 3.120034e+00
      vertex 9.250000e+00 2.829355e+00 5.949123e+00
      vertex 9.250000e+00 1.035342e+00 6.984063e+00
    endloop
  endfacet
  facet normal -9.999999e-01 8.032561e-12 5.178036e-04
    outer loop
      vertex -9.250000e+00 4.016602e-04 3.120034e+00
      vertex -9.247999e+00 -1.034674e+00 6.984063e+00
      vertex -9.247999e+00 1.035342e+00 6.984063e+00
    endloop
  endfacet
  facet normal 1.000000e+00 0.000000e+00 0.000000e+00
    outer loop
      vertex 9.250000e+00 4.016602e-04 3.120034e+00
      vertex 9.250000e+00 1.035342e+00 6.984063e+00
      vertex 9.250000e+00 -1.034674e+00 6.984063e+00
    endloop
  endfacet
  facet normal -9.999999e-01 -2.587601e-04 4.484884e-04
    outer loop
      vertex -9.250000e+00 4.016602e-04 3.120034e+00
      vertex -9.247999e+00 -2.828687e+00 5.948988e+00
      vertex -9.247999e+00 -1.034674e+00 6.984063e+00
    endloop
  endfacet
  facet normal 1.000000e+00 0.000000e+00 0.000000e+00
    outer loop
      vertex 9.250000e+00 4.016602e-04 3.120034e+00
      vertex 9.250000e+00 -1.034674e+00 6.984063e+00
      vertex 9.250000e+00 -2.828687e+00 5.948988e+00
    endloop
  endfacet
  facet normal -9.999999e-01 -4.485041e-04 2.587354e-04
    outer loop
      vertex -9.250000e+00 4.016602e-04 3.120034e+00
      vertex -9.247999e+00 -3.863628e+00 4.154974e+00
      vertex -9.247999e+00 -2.828687e+00 5.948988e+00
    endloop
  endfacet
  facet normal 1.000000e+00 0.000000e+00 0.000000e+00
    outer loop
      vertex 9.250000e+00 4.016602e-04 3.120034e+00
      vertex 9.250000e+00 -2.828687e+00 5.948988e+00
      vertex 9.250000e+00 -3.863628e+00 4.154974e+00
    endloop
  endfacet
  facet normal -9.999995e-01 -2.589185e-04 9.665667e-04
    outer loop
      vertex -9.247999e+00 -3.863628e+00 4.154974e+00
      vertex -9.250000e+00 4.016602e-04 3.120034e+00
      vertex -9.250000e+00 -3.863628e+00 2.084959e+00
    endloop
  endfacet
  facet normal 1.000000e+00 0.000000e+00 0.000000e+00
    outer loop
      vertex 9.250000e+00 4.016602e-04 3.120034e+00
      vertex 9.250000e+00 -3.863628e+00 4.154974e+00
      vertex 9.250000e+00 -3.863628e+00 2.084959e+00
    endloop
  endfacet
  facet normal 0.000000e+00 -8.661715e-01 -4.997469e-01
    outer loop
      vertex -9.250000e+00 -3.863628e+00 2.084959e+00
      vertex 6.250000e+00 -2.828552e+00 2.909446e-01
      vertex 6.252003e+00 -3.863628e+00 2.084959e+00
    endloop
  endfacet
  facet normal -0.000000e+00 -8.661715e-01 -4.997469e-01
    outer loop
      vertex 6.250000e+00 -2.828552e+00 2.909446e-01
      vertex -9.250000e+00 -3.863628e+00 2.084959e+00
      vertex -9.250000e+00 -2.828552e+00 2.909446e-01
    endloop
  endfacet
  facet normal 0.000000e+00 -1.598342e-01 -9.871439e-01
    outer loop
      vertex -9.250000e+00 -2.828552e+00 2.909446e-01
      vertex 6.250000e+00 -1.031664e+00 0.000000e+00
      vertex 6.250000e+00 -2.828552e+00 2.909446e-01
    endloop
  endfacet
  facet normal -0.000000e+00 -1.598342e-01 -9.871439e-01
    outer loop
      vertex 6.250000e+00 -1.031664e+00 0.000000e+00
      vertex -9.250000e+00 -2.828552e+00 2.909446e-01
      vertex -9.250000e+00 -1.031664e+00 0.000000e+00
    endloop
  endfacet
  facet normal 0.000000e+00 -1.598342e-01 -9.871439e-01
    outer loop
      vertex 6.250000e+00 -2.828552e+00 2.909446e-01
      vertex 9.250000e+00 -1.031664e+00 0.000000e+00
      vertex 9.250000e+00 -2.828552e+00 2.909446e-01
    endloop
  endfacet
  facet normal -0.000000e+00 -1.598342e-01 -9.871439e-01
    outer loop
      vertex 9.250000e+00 -1.031664e+00 0.000000e+00
      vertex 6.250000e+00 -2.828552e+00 2.909446e-01
      vertex 6.250000e+00 -1.031664e+00 0.000000e+00
    endloop
  endfacet
  facet normal 0.000000e+00 -1.130433e-10 -1.000000e+00
    outer loop
      vertex -9.250000e+00 -1.031664e+00 0.000000e+00
      vertex 6.250000e+00 1.038352e+00 3.552714e-15
      vertex 6.250000e+00 -1.031664e+00 0.000000e+00
    endloop
  endfacet
  facet normal 0.000000e+00 -1.130433e-10 -1.000000e+00
    outer loop
      vertex 6.250000e+00 1.038352e+00 3.552714e-15
      vertex -9.250000e+00 -1.031664e+00 0.000000e+00
      vertex -9.250000e+00 1.038352e+00 3.552714e-15
    endloop
  endfacet
  facet normal 0.000000e+00 1.172943e-10 -1.000000e+00
    outer loop
      vertex 6.250000e+00 -1.031664e+00 0.000000e+00
      vertex 9.250000e+00 1.038352e+00 3.552714e-15
      vertex 9.250000e+00 -1.031664e+00 0.000000e+00
    endloop
  endfacet
  facet normal 0.000000e+00 1.172943e-10 -1.000000e+00
    outer loop
      vertex 9.250000e+00 1.038352e+00 3.552714e-15
      vertex 6.250000e+00 -1.031664e+00 0.000000e+00
      vertex 6.250000e+00 1.038352e+00 3.552714e-15
    endloop
  endfacet
  facet normal 0.000000e+00 1.604072e-01 -9.870510e-01
    outer loop
      vertex -9.250000e+00 1.038352e+00 3.552714e-15
      vertex 6.250000e+00 2.829491e+00 2.910808e-01
      vertex 6.250000e+00 1.038352e+00 3.552714e-15
    endloop
  endfacet
  facet normal 0.000000e+00 1.604072e-01 -9.870510e-01
    outer loop
      vertex 6.250000e+00 2.829491e+00 2.910808e-01
      vertex -9.250000e+00 1.038352e+00 3.552714e-15
      vertex -9.250000e+00 2.829491e+00 2.910808e-01
    endloop
  endfacet
  facet normal 0.000000e+00 1.604072e-01 -9.870510e-01
    outer loop
      vertex 6.250000e+00 1.038352e+00 3.552714e-15
      vertex 9.250000e+00 2.829491e+00 2.910808e-01
      vertex 9.250000e+00 1.038352e+00 3.552714e-15
    endloop
  endfacet
  facet normal 0.000000e+00 1.604072e-01 -9.870510e-01
    outer loop
      vertex 9.250000e+00 2.829491e+00 2.910808e-01
      vertex 6.250000e+00 1.038352e+00 3.552714e-15
      vertex 6.250000e+00 2.829491e+00 2.910808e-01
    endloop
  endfacet
  facet normal 0.000000e+00 8.661998e-01 -4.996979e-01
    outer loop
      vertex -9.250000e+00 2.829491e+00 2.910808e-01
      vertex 6.250000e+00 3.864431e+00 2.085095e+00
      vertex 6.250000e+00 2.829491e+00 2.910808e-01
    endloop
  endfacet
  facet normal 0.000000e+00 8.661998e-01 -4.996979e-01
    outer loop
      vertex 6.250000e+00 3.864431e+00 2.085095e+00
      vertex -9.250000e+00 2.829491e+00 2.910808e-01
      vertex -9.250000e+00 3.864431e+00 2.085095e+00
    endloop
  endfacet
  facet normal 0.000000e+00 1.000000e+00 1.749588e-09
    outer loop
      vertex -9.250000e+00 3.864431e+00 2.085095e+00
      vertex 6.250000e+00 3.864431e+00 4.155110e+00
      vertex 6.250000e+00 3.864431e+00 2.085095e+00
    endloop
  endfacet
  facet normal 0.000000e+00 1.000000e+00 1.749588e-09
    outer loop
      vertex 6.250000e+00 3.864431e+00 4.155110e+00
      vertex -9.250000e+00 3.864431e+00 2.085095e+00
      vertex -9.250000e+00 3.864431e+00 4.155110e+00
    endloop
  endfacet
  facet normal 0.000000e+00 1.000000e+00 1.747097e-09
    outer loop
      vertex 6.250000e+00 3.864431e+00 2.085095e+00
      vertex 9.250000e+00 3.864431e+00 4.155110e+00
      vertex 9.250000e+00 3.864431e+00 2.085095e+00
    endloop
  endfacet
  facet normal 0.000000e+00 1.000000e+00 1.747097e-09
    outer loop
      vertex 9.250000e+00 3.864431e+00 4.155110e+00
      vertex 6.250000e+00 3.864431e+00 2.085095e+00
      vertex 6.250000e+00 3.864431e+00 4.155110e+00
    endloop
  endfacet
  facet normal 0.000000e+00 8.661713e-01 4.997473e-01
    outer loop
      vertex -9.250000e+00 3.864431e+00 4.155110e+00
      vertex 6.252003e+00 2.829355e+00 5.949123e+00
      vertex 6.250000e+00 3.864431e+00 4.155110e+00
    endloop
  endfacet
  facet normal 0.000000e+00 8.661713e-01 4.997473e-01
    outer loop
      vertex 6.252003e+00 2.829355e+00 5.949123e+00
      vertex -9.250000e+00 3.864431e+00 4.155110e+00
      vertex -9.247999e+00 2.829355e+00 5.949123e+00
    endloop
  endfacet
  facet normal 0.000000e+00 8.661713e-01 4.997473e-01
    outer loop
      vertex 6.250000e+00 3.864431e+00 4.155110e+00
      vertex 9.250000e+00 2.829355e+00 5.949123e+00
      vertex 9.250000e+00 3.864431e+00 4.155110e+00
    endloop
  endfacet
  facet normal 0.000000e+00 8.661712e-01 4.997473e-01
    outer loop
      vertex 9.250000e+00 2.829355e+00 5.949123e+00
      vertex 6.250000e+00 3.864431e+00 4.155110e+00
      vertex 6.252003e+00 2.829355e+00 5.949123e+00
    endloop
  endfacet
  facet normal 0.000000e+00 4.996981e-01 8.661996e-01
    outer loop
      vertex -9.247999e+00 2.829355e+00 5.949123e+00
      vertex 6.252003e+00 1.035342e+00 6.984063e+00
      vertex 6.252003e+00 2.829355e+00 5.949123e+00
    endloop
  endfacet
  facet normal 0.000000e+00 4.996981e-01 8.661996e-01
    outer loop
      vertex 6.252003e+00 1.035342e+00 6.984063e+00
      vertex -9.247999e+00 2.829355e+00 5.949123e+00
      vertex -9.247999e+00 1.035342e+00 6.984063e+00
    endloop
  endfacet
  facet normal 0.000000e+00 4.996981e-01 8.661996e-01
    outer loop
      vertex 6.252003e+00 2.829355e+00 5.949123e+00
      vertex 9.250000e+00 1.035342e+00 6.984063e+00
      vertex 9.250000e+00 2.829355e+00 5.949123e+00
    endloop
  endfacet
  facet normal 0.000000e+00 4.996981e-01 8.661996e-01
    outer loop
      vertex 9.250000e+00 1.035342e+00 6.984063e+00
      vertex 6.252003e+00 2.829355e+00 5.949123e+00
      vertex 6.252003e+00 1.035342e+00 6.984063e+00
    endloop
  endfacet
  facet normal 0.000000e+00 1.130433e-10 1.000000e+00
    outer loop
      vertex -9.247999e+00 1.035342e+00 6.984063e+00
      vertex 6.252003e+00 -1.034674e+00 6.984063e+00
      vertex 6.252003e+00 1.035342e+00 6.984063e+00
    endloop
  endfacet
  facet normal 0.000000e+00 1.130433e-10 1.000000e+00
    outer loop
      vertex 6.252003e+00 -1.034674e+00 6.984063e+00
      vertex -9.247999e+00 1.035342e+00 6.984063e+00
      vertex -9.247999e+00 -1.034674e+00 6.984063e+00
    endloop
  endfacet
  facet normal 0.000000e+00 -4.997467e-01 8.661716e-01
    outer loop
      vertex -9.247999e+00 -1.034674e+00 6.984063e+00
      vertex 6.252003e+00 -2.828687e+00 5.948988e+00
      vertex 6.252003e+00 -1.034674e+00 6.984063e+00
    endloop
  endfacet
  facet normal 0.000000e+00 -4.997467e-01 8.661716e-01
    outer loop
      vertex 6.252003e+00 -2.828687e+00 5.948988e+00
      vertex -9.247999e+00 -1.034674e+00 6.984063e+00
      vertex -9.247999e+00 -2.828687e+00 5.948988e+00
    endloop
  endfacet
  facet normal 0.000000e+00 -4.997467e-01 8.661716e-01
    outer loop
      vertex 6.252003e+00 -1.034674e+00 6.984063e+00
      vertex 9.250000e+00 -2.828687e+00 5.948988e+00
      vertex 9.250000e+00 -1.034674e+00 6.984063e+00
    endloop
  endfacet
  facet normal 0.000000e+00 -4.997467e-01 8.661716e-01
    outer loop
      vertex 9.250000e+00 -2.828687e+00 5.948988e+00
      vertex 6.252003e+00 -1.034674e+00 6.984063e+00
      vertex 6.252003e+00 -2.828687e+00 5.948988e+00
    endloop
  endfacet
  facet normal 0.000000e+00 -8.661998e-01 4.996979e-01
    outer loop
      vertex -9.247999e+00 -2.828687e+00 5.948988e+00
      vertex 6.252003e+00 -3.863628e+00 4.154974e+00
      vertex 6.252003e+00 -2.828687e+00 5.948988e+00
    endloop
  endfacet
  facet normal 0.000000e+00 -8.661998e-01 4.996979e-01
    outer loop
      vertex 6.252003e+00 -3.863628e+00 4.154974e+00
      vertex -9.247999e+00 -2.828687e+00 5.948988e+00
      vertex -9.247999e+00 -3.863628e+00 4.154974e+00
    endloop
  endfacet
  facet normal 0.000000e+00 -8.661998e-01 4.996979e-01
    outer loop
      vertex 6.252003e+00 -2.828687e+00 5.948988e+00
      vertex 9.250000e+00 -3.863628e+00 4.154974e+00
      vertex 9.250000e+00 -2.828687e+00 5.948988e+00
    endloop
  endfacet
  facet normal 0.000000e+00 -8.661998e-01 4.996979e-01
    outer loop
      vertex 9.250000e+00 -3.863628e+00 4.154974e+00
      vertex 6.252003e+00 -2.828687e+00 5.948988e+00
      vertex 6.252003e+00 -3.863628e+00 4.154974e+00
    endloop
  endfacet
  facet normal -0.000000e+00 -1.000000e+00 -1.979926e-09
    outer loop
      vertex 9.250000e+00 -3.863628e+00 2.084959e+00
      vertex 6.252003e+00 -3.863628e+00 4.154974e+00
      vertex 6.252003e+00 -3.863628e+00 2.084959e+00
    endloop
  endfacet
  facet normal 0.000000e+00 -1.000000e+00 -1.979926e-09
    outer loop
      vertex 6.252003e+00 -3.863628e+00 4.154974e+00
      vertex 9.250000e+00 -3.863628e+00 2.084959e+00
      vertex 9.250000e+00 -3.863628e+00 4.154974e+00
    endloop
  endfacet
  facet normal -0.000000e+00 -1.000000e+00 -1.516759e-09
    outer loop
      vertex 6.252003e+00 -3.863628e+00 2.084959e+00
      vertex -9.247999e+00 -3.863628e+00 4.154974e+00
      vertex -9.250000e+00 -3.863628e+00 2.084959e+00
    endloop
  endfacet
  facet normal 0.000000e+00 -1.000000e+00 -1.749588e-09
    outer loop
      vertex -9.247999e+00 -3.863628e+00 4.154974e+00
      vertex 6.252003e+00 -3.863628e+00 2.084959e+00
      vertex 6.252003e+00 -3.863628e+00 4.154974e+00
    endloop
  endfacet
  facet normal -4.572451e-01 -1.083984e-10 8.893407e-01
    outer loop
      vertex 6.252003e+00 -1.034674e+00 6.984063e+00
      vertex 7.002003e+00 1.138832e+00 7.369668e+00
      vertex 6.252003e+00 1.035342e+00 6.984063e+00
    endloop
  endfacet
  facet normal -4.579622e-01 3.129292e-04 8.889717e-01
    outer loop
      vertex 7.002003e+00 1.138832e+00 7.369668e+00
      vertex 6.252003e+00 -1.034674e+00 6.984063e+00
      vertex 7.002003e+00 -1.139181e+00 7.370469e+00
    endloop
  endfacet
  facet normal -4.581005e-01 7.699654e-01 -4.441817e-01
    outer loop
      vertex 6.250000e+00 3.864431e+00 2.085095e+00
      vertex 7.000000e+00 3.112399e+00 7.985811e-03
      vertex 6.250000e+00 2.829491e+00 2.910808e-01
    endloop
  endfacet
  facet normal -4.573909e-01 7.704365e-01 -4.440961e-01
    outer loop
      vertex 7.000000e+00 3.112399e+00 7.985811e-03
      vertex 6.250000e+00 3.864431e+00 2.085095e+00
      vertex 7.000000e+00 4.250034e+00 1.981603e+00
    endloop
  endfacet
  facet normal -4.594961e-01 -7.695379e-01 -4.434801e-01
    outer loop
      vertex 6.250000e+00 -2.828552e+00 2.909446e-01
      vertex 7.000000e+00 -4.250034e+00 1.980450e+00
      vertex 6.252003e+00 -3.863628e+00 2.084959e+00
    endloop
  endfacet
  facet normal -4.581839e-01 -7.698385e-01 -4.443155e-01
    outer loop
      vertex 7.000000e+00 -4.250034e+00 1.980450e+00
      vertex 6.250000e+00 -2.828552e+00 2.909446e-01
      vertex 7.000000e+00 -3.111648e+00 8.038002e-03
    endloop
  endfacet
  facet normal -0.000000e+00 -9.653173e-01 -2.610798e-01
    outer loop
      vertex 9.250000e+00 -1.034674e+00 6.984063e+00
      vertex 7.002003e+00 -1.139181e+00 7.370469e+00
      vertex 6.252003e+00 -1.034674e+00 6.984063e+00
    endloop
  endfacet
  facet normal 0.000000e+00 -9.653172e-01 -2.610797e-01
    outer loop
      vertex 7.002003e+00 -1.139181e+00 7.370469e+00
      vertex 9.250000e+00 -1.034674e+00 6.984063e+00
      vertex 9.250000e+00 -1.139181e+00 7.370469e+00
    endloop
  endfacet
  facet normal 0.000000e+00 9.658207e-01 -2.592111e-01
    outer loop
      vertex 6.252003e+00 1.035342e+00 6.984063e+00
      vertex 9.250000e+00 1.138832e+00 7.369668e+00
      vertex 9.250000e+00 1.035342e+00 6.984063e+00
    endloop
  endfacet
  facet normal 0.000000e+00 9.658207e-01 -2.592111e-01
    outer loop
      vertex 9.250000e+00 1.138832e+00 7.369668e+00
      vertex 6.252003e+00 1.035342e+00 6.984063e+00
      vertex 7.002003e+00 1.138832e+00 7.369668e+00
    endloop
  endfacet
  facet normal 0.000000e+00 2.592164e-01 9.658192e-01
    outer loop
      vertex 9.250000e+00 3.864431e+00 2.085095e+00
      vertex 7.000000e+00 4.250034e+00 1.981603e+00
      vertex 6.250000e+00 3.864431e+00 2.085095e+00
    endloop
  endfacet
  facet normal 0.000000e+00 2.592164e-01 9.658192e-01
    outer loop
      vertex 7.000000e+00 4.250034e+00 1.981603e+00
      vertex 9.250000e+00 3.864431e+00 2.085095e+00
      vertex 9.250000e+00 4.250034e+00 1.981603e+00
    endloop
  endfacet
  facet normal 0.000000e+00 -7.073397e-01 -7.068738e-01
    outer loop
      vertex 6.250000e+00 2.829491e+00 2.910808e-01
      vertex 9.250000e+00 3.112399e+00 7.985811e-03
      vertex 9.250000e+00 2.829491e+00 2.910808e-01
    endloop
  endfacet
  facet normal -0.000000e+00 -7.073397e-01 -7.068738e-01
    outer loop
      vertex 9.250000e+00 3.112399e+00 7.985811e-03
      vertex 6.250000e+00 2.829491e+00 2.910808e-01
      vertex 7.000000e+00 3.112399e+00 7.985811e-03
    endloop
  endfacet
  facet normal 0.000000e+00 -2.610819e-01 9.653167e-01
    outer loop
      vertex 6.252003e+00 -3.863628e+00 2.084959e+00
      vertex 9.250000e+00 -4.250034e+00 1.980450e+00
      vertex 9.250000e+00 -3.863628e+00 2.084959e+00
    endloop
  endfacet
  facet normal 0.000000e+00 -2.610819e-01 9.653167e-01
    outer loop
      vertex 9.250000e+00 -4.250034e+00 1.980450e+00
      vertex 6.252003e+00 -3.863628e+00 2.084959e+00
      vertex 7.000000e+00 -4.250034e+00 1.980450e+00
    endloop
  endfacet
  facet normal 0.000000e+00 7.068702e-01 -7.073433e-01
    outer loop
      vertex 9.250000e+00 -2.828552e+00 2.909446e-01
      vertex 7.000000e+00 -3.111648e+00 8.038002e-03
      vertex 6.250000e+00 -2.828552e+00 2.909446e-01
    endloop
  endfacet
  facet normal 0.000000e+00 7.068702e-01 -7.073433e-01
    outer loop
      vertex 7.000000e+00 -3.111648e+00 8.038002e-03
      vertex 9.250000e+00 -2.828552e+00 2.909446e-01
      vertex 9.250000e+00 -3.111648e+00 8.038002e-03
    endloop
  endfacet
  facet normal 1.000000e+00 0.000000e+00 0.000000e+00
    outer loop
      vertex 9.250000e+00 1.035342e+00 6.984063e+00
      vertex 9.250000e+00 -1.139181e+00 7.370469e+00
      vertex 9.250000e+00 -1.034674e+00 6.984063e+00
    endloop
  endfacet
  facet normal 1.000000e+00 0.000000e+00 0.000000e+00
    outer loop
      vertex 9.250000e+00 -1.139181e+00 7.370469e+00
      vertex 9.250000e+00 1.035342e+00 6.984063e+00
      vertex 9.250000e+00 1.138832e+00 7.369668e+00
    endloop
  endfacet
  facet normal 1.000000e+00 0.000000e+00 0.000000e+00
    outer loop
      vertex 9.250000e+00 2.829491e+00 2.910808e-01
      vertex 9.250000e+00 4.250034e+00 1.981603e+00
      vertex 9.250000e+00 3.864431e+00 2.085095e+00
    endloop
  endfacet
  facet normal 1.000000e+00 0.000000e+00 0.000000e+00
    outer loop
      vertex 9.250000e+00 4.250034e+00 1.981603e+00
      vertex 9.250000e+00 2.829491e+00 2.910808e-01
      vertex 9.250000e+00 3.112399e+00 7.985811e-03
    endloop
  endfacet
  facet normal 1.000000e+00 0.000000e+00 0.000000e+00
    outer loop
      vertex 9.250000e+00 -3.863628e+00 2.084959e+00
      vertex 9.250000e+00 -3.111648e+00 8.038002e-03
      vertex 9.250000e+00 -2.828552e+00 2.909446e-01
    endloop
  endfacet
  facet normal 1.000000e+00 0.000000e+00 0.000000e+00
    outer loop
      vertex 9.250000e+00 -3.111648e+00 8.038002e-03
      vertex 9.250000e+00 -3.863628e+00 2.084959e+00
      vertex 9.250000e+00 -4.250034e+00 1.980450e+00
    endloop
  endfacet
  facet normal 0.000000e+00 3.520127e-04 9.999999e-01
    outer loop
      vertex 7.002003e+00 1.138832e+00 7.369668e+00
      vertex 9.250000e+00 -1.139181e+00 7.370469e+00
      vertex 9.250000e+00 1.138832e+00 7.369668e+00
    endloop
  endfacet
  facet normal 0.000000e+00 3.520127e-04 9.999999e-01
    outer loop
      vertex 9.250000e+00 -1.139181e+00 7.370469e+00
      vertex 7.002003e+00 1.138832e+00 7.369668e+00
      vertex 7.002003e+00 -1.139181e+00 7.370469e+00
    endloop
  endfacet
  facet normal 0.000000e+00 8.663737e-01 -4.993962e-01
    outer loop
      vertex 7.000000e+00 3.112399e+00 7.985811e-03
      vertex 9.250000e+00 4.250034e+00 1.981603e+00
      vertex 9.250000e+00 3.112399e+00 7.985811e-03
    endloop
  endfacet
  facet normal 0.000000e+00 8.663737e-01 -4.993962e-01
    outer loop
      vertex 9.250000e+00 4.250034e+00 1.981603e+00
      vertex 7.000000e+00 3.112399e+00 7.985811e-03
      vertex 7.000000e+00 4.250034e+00 1.981603e+00
    endloop
  endfacet
  facet normal 0.000000e+00 -8.660990e-01 -4.998727e-01
    outer loop
      vertex 7.000000e+00 -4.250034e+00 1.980450e+00
      vertex 9.250000e+00 -3.111648e+00 8.038002e-03
      vertex 9.250000e+00 -4.250034e+00 1.980450e+00
    endloop
  endfacet
  facet normal -0.000000e+00 -8.660990e-01 -4.998727e-01
    outer loop
      vertex 9.250000e+00 -3.111648e+00 8.038002e-03
      vertex 7.000000e+00 -4.250034e+00 1.980450e+00
      vertex 7.000000e+00 -3.111648e+00 8.038002e-03
    endloop
  endfacet
endsolid Default
